<?xml version="1.0" standalone="no"?>
<!DOCTYPE svg PUBLIC "-//W3C//DTD SVG 20010904//EN"
 "http://www.w3.org/TR/2001/REC-SVG-20010904/DTD/svg10.dtd">
<svg version="1.0" xmlns="http://www.w3.org/2000/svg"
 width="509.000000pt" height="509.000000pt" viewBox="0 0 509.000000 509.000000"
 preserveAspectRatio="xMidYMid meet">
<metadata>
Created by potrace 1.11, written by Peter Selinger 2001-2013
</metadata>
<g transform="translate(0.000000,509.000000) scale(0.100000,-0.100000)"
fill="#000000" stroke="none">
<path d="M3137 4755 c-1 -2 -44 -5 -95 -9 -131 -9 -185 -23 -240 -60 -26 -18
-64 -36 -84 -40 -26 -5 -45 -17 -62 -39 -39 -53 -46 -73 -51 -144 -6 -104 -19
-155 -51 -209 -17 -28 -40 -90 -53 -144 -13 -52 -43 -145 -67 -206 -40 -102
-83 -242 -114 -372 -6 -28 -20 -70 -31 -92 -10 -21 -19 -45 -19 -52 0 -6 -14
-50 -31 -97 -39 -109 -72 -205 -89 -256 -7 -22 -21 -58 -31 -80 -9 -22 -21
-56 -24 -75 -4 -19 -17 -62 -30 -95 -24 -65 -49 -150 -60 -203 -6 -27 -9 -31
-21 -21 -8 6 -14 7 -14 2 0 -5 -12 -15 -26 -22 -22 -10 -25 -16 -19 -39 3 -15
12 -32 20 -38 9 -6 11 -14 5 -20 -9 -10 -78 -136 -79 -144 0 -3 -4 -17 -10
-32 -6 -15 -17 -55 -26 -89 -13 -47 -26 -71 -60 -106 -47 -48 -58 -78 -58
-167 0 -83 9 -149 25 -181 18 -36 15 -50 -23 -90 -50 -54 -57 -85 -56 -261 l0
-161 -38 -69 c-22 -38 -41 -84 -44 -102 l-6 -32 -25 47 c-13 27 -50 90 -82
141 -32 51 -58 95 -58 98 0 3 -13 24 -28 47 -35 51 -58 108 -84 206 -17 65
-25 79 -68 118 -27 24 -52 52 -55 62 -7 22 -52 43 -82 38 -29 -4 -48 -22 -67
-61 -18 -38 -54 -197 -61 -266 -6 -64 -22 -133 -40 -178 -9 -19 -15 -49 -13
-66 1 -17 -6 -46 -16 -65 -19 -35 -47 -121 -51 -156 -2 -11 -15 -51 -30 -90
-14 -38 -35 -94 -45 -123 -11 -29 -23 -58 -27 -65 -10 -15 -20 30 -22 94 0 26
-8 80 -16 120 -8 41 -16 92 -19 114 -2 22 -11 59 -19 82 -9 22 -18 58 -22 80
-3 21 -10 54 -15 74 -11 39 -32 159 -50 280 -6 42 -19 97 -29 123 -13 35 -15
60 -10 103 8 69 -4 103 -54 158 -29 32 -45 40 -74 42 -67 4 -89 -6 -122 -52
-29 -40 -31 -50 -26 -89 4 -25 15 -53 25 -63 35 -39 140 -361 192 -593 6 -25
14 -49 19 -55 5 -5 9 -20 9 -35 0 -14 9 -53 20 -87 10 -34 22 -83 25 -109 3
-26 10 -65 15 -88 10 -44 18 -117 25 -233 8 -129 46 -203 102 -198 51 4 73 27
121 125 25 52 58 111 72 130 27 36 56 110 65 170 3 19 13 60 21 90 9 30 18 62
20 70 34 136 54 215 64 260 17 73 18 75 46 49 16 -15 26 -38 30 -70 4 -27 17
-63 30 -81 13 -17 24 -38 24 -45 0 -7 15 -36 34 -63 19 -28 37 -63 41 -79 3
-15 14 -37 23 -47 10 -11 37 -44 60 -76 70 -95 185 -208 227 -222 88 -31 204
14 246 94 11 19 26 40 34 46 8 6 22 31 30 55 9 24 20 46 25 49 5 3 12 21 15
39 3 19 8 38 11 42 2 4 7 28 10 54 3 25 14 66 24 90 10 24 22 61 26 82 4 21 9
47 11 58 2 11 6 75 8 141 1 67 8 130 13 141 6 10 11 62 11 115 0 53 6 129 12
168 6 39 8 82 5 95 -3 12 1 42 9 65 8 23 14 44 13 48 -1 4 2 23 5 42 4 19 9
55 11 80 7 80 37 191 62 228 28 40 30 75 9 116 -9 16 -13 41 -11 55 17 82 89
338 116 411 18 47 49 135 70 195 41 123 89 236 104 247 14 10 76 -19 110 -50
25 -24 55 -70 106 -160 92 -163 151 -254 200 -308 70 -78 149 -187 165 -229 6
-16 23 -54 39 -84 21 -41 26 -59 19 -75 -6 -13 -6 -39 1 -71 9 -39 18 -54 45
-72 19 -13 46 -26 60 -30 56 -14 89 -53 115 -140 4 -13 12 -23 17 -23 6 0 17
-17 26 -38 36 -86 54 -122 63 -122 6 0 16 -12 22 -27 7 -16 20 -40 30 -55 10
-15 24 -42 30 -60 18 -54 54 -95 127 -142 39 -25 82 -63 101 -90 18 -25 37
-46 40 -46 10 0 57 -71 65 -97 5 -19 1 -25 -22 -34 -36 -13 -71 -46 -90 -84
-8 -16 -29 -42 -45 -58 -30 -27 -48 -28 -48 -2 0 8 -13 21 -29 30 -29 15 -30
14 -56 -20 l-27 -34 29 -26 c15 -14 36 -23 46 -21 23 6 17 -14 -9 -28 -10 -6
-39 -23 -63 -38 -26 -16 -59 -28 -78 -28 -28 0 -43 -9 -84 -51 -27 -28 -49
-57 -49 -65 0 -8 -4 -22 -9 -32 -5 -9 -17 -39 -27 -67 -10 -27 -35 -68 -56
-89 -21 -22 -38 -49 -38 -62 0 -12 -16 -49 -35 -82 -40 -66 -58 -158 -34 -166
35 -13 87 -11 116 2 30 14 41 31 108 158 22 40 38 56 81 78 67 35 84 50 118
105 16 24 38 53 50 65 12 12 30 38 41 58 11 21 23 38 28 38 14 0 127 123 127
138 0 8 20 38 45 66 25 28 54 61 65 73 25 30 29 29 76 -11 25 -22 40 -43 42
-61 1 -14 17 -45 36 -68 19 -23 40 -64 47 -91 9 -35 20 -53 39 -64 38 -22 93
-109 87 -138 -3 -15 6 -40 22 -67 15 -23 37 -62 50 -87 51 -100 155 -203 216
-214 83 -16 95 77 28 205 -21 38 -48 81 -61 96 -13 16 -35 50 -48 76 -14 26
-31 50 -39 53 -7 3 -30 34 -50 69 -21 35 -55 83 -76 107 -21 24 -39 48 -39 54
0 7 -18 33 -40 60 -21 26 -42 61 -46 77 -6 30 -17 45 -67 97 -27 28 -28 32
-16 67 20 65 75 131 135 167 37 22 82 85 90 126 4 18 19 41 36 53 16 12 38 35
48 52 10 16 42 55 70 85 28 30 70 80 93 110 23 30 63 82 90 115 27 33 55 75
62 93 8 17 18 32 23 32 6 0 12 14 14 31 4 27 -2 38 -42 78 -26 26 -52 56 -58
67 -6 11 -19 21 -29 22 -46 6 -60 6 -89 -1 -27 -7 -33 -15 -42 -50 -6 -23 -10
-65 -10 -92 1 -42 -5 -60 -35 -108 -21 -32 -62 -82 -92 -112 -30 -29 -55 -58
-55 -64 0 -6 -11 -13 -25 -17 -51 -13 -114 -117 -130 -216 -3 -22 -19 -51 -38
-72 -18 -18 -38 -51 -46 -72 -12 -34 -79 -144 -87 -144 -1 0 -10 24 -19 53 -9
28 -39 89 -66 133 -45 75 -49 88 -55 165 -4 46 -12 91 -19 99 -7 8 -20 39 -29
69 -17 59 -47 103 -116 171 -64 63 -82 88 -109 145 -36 77 -56 100 -101 115
-28 9 -53 29 -83 66 -23 29 -51 54 -61 56 -34 5 -82 117 -93 213 -3 27 -9 58
-14 68 -10 17 -67 196 -74 230 -2 10 -17 53 -34 95 -43 111 -73 321 -52 361 7
11 37 37 69 57 31 20 59 40 62 43 3 4 20 18 39 31 77 54 169 187 190 275 5 22
26 87 46 145 21 58 40 121 42 140 2 19 8 50 13 68 5 19 5 43 1 55 -4 12 -6 50
-5 83 1 36 -6 94 -18 140 -18 68 -27 85 -67 125 -50 49 -102 70 -184 74 -26 1
-48 1 -50 0z m-63 -281 c27 -5 38 -12 42 -30 9 -33 -15 -126 -37 -147 -41 -38
-51 -64 -37 -86 7 -12 19 -19 25 -16 24 8 14 -47 -16 -94 -16 -25 -32 -62 -35
-81 -3 -19 -12 -55 -21 -79 -8 -24 -15 -51 -15 -61 0 -14 -82 -100 -96 -100
-3 0 -17 -9 -32 -19 -15 -10 -58 -27 -97 -37 -38 -10 -85 -26 -103 -36 -42
-23 -72 -23 -72 0 1 59 35 164 83 255 60 112 102 212 123 293 15 60 48 135 77
177 27 39 124 81 164 71 6 -1 28 -6 47 -10z"/>
<path d="M2458 3126 c-37 -21 -56 -60 -34 -73 6 -4 23 -8 37 -9 29 -2 49 27
49 71 0 33 -9 35 -52 11z"/>
<path d="M3902 2167 c-41 -29 -44 -38 -20 -75 l20 -31 29 21 c33 24 34 33 16
77 l-13 31 -32 -23z"/>
<path d="M3800 513 l-32 -28 20 -25 c25 -32 68 -37 82 -9 13 24 6 50 -19 73
-18 17 -21 16 -51 -11z"/>
</g>
</svg>
